<?xml version="1.0" encoding="UTF-8"?>
<svg id="Layer_2" data-name="Layer 2" xmlns="http://www.w3.org/2000/svg" width="197.52" height="48.45" viewBox="0 0 197.52 48.45">
  <defs>
    <style>
      .cls-1, .cls-2 {
        fill: #fbfaf4;
        stroke-width: 0px;
      }

      .cls-2 {
        fill-rule: evenodd;
      }
    </style>
  </defs>
  <g id="Layer_4" data-name="Layer 4">
    <path class="cls-1" d="M116.38,19.71s-.03,0-.05,0c-.92.13-1.45-.09-1.87-1.1-1-2.37-4.54-2.53-6.1-.39-.54.75-.82,1.59-.93,2.5-.16,1.29-.11,2.56.36,3.79.83,2.2,3.08,3.18,5.15,2.24.93-.43,1.52-1.17,1.81-2.14.11-.37.28-.51.67-.5.67.03,1.33,0,2,0,.56,0,.63.08.52.66-.36,1.88-1.37,3.3-3.07,4.2-2.83,1.49-6.68.96-8.76-1.2-.94-.98-1.49-2.16-1.77-3.47-.38-1.77-.36-3.54.12-5.29.84-3.01,3.23-4.88,6.36-4.99,2.14-.08,4.07.42,5.6,2.01.85.88,1.33,1.94,1.54,3.14.07.38-.05.57-.46.54-.37-.02-.73,0-1.1,0Z"/>
    <path class="cls-1" d="M26.09,21.88c0-2.31,0-4.63,0-6.94,0-.47.14-.64.62-.64,2.96.02,5.93.02,8.89,0,.45,0,.64.12.61.6-.04.5-.03,1,0,1.5.02.42-.13.55-.54.54-1.88-.02-3.76,0-5.65,0-.72,0-.72,0-.72.7,0,.8.02,1.6,0,2.4-.02.44.13.58.57.58,1.76-.02,3.53,0,5.29-.02.49,0,.7.13.66.65-.04.43-.03.87,0,1.3.02.4-.15.52-.53.52-1.76-.01-3.53,0-5.29,0-.69,0-.69,0-.69.69,0,.87.02,1.73,0,2.6-.01.44.13.58.57.58,1.9-.02,3.8,0,5.69-.02.49,0,.7.12.66.64-.04.48-.03.97,0,1.45.02.41-.13.55-.54.55-1.48-.02-2.96,0-4.45,0s-3-.02-4.49,0c-.48,0-.64-.14-.63-.62.01-2.35,0-4.7,0-7.05Z"/>
    <path class="cls-1" d="M122.86,19.94c.47-.61.9-1.17,1.58-1.53,2.69-1.41,5.77.31,5.89,3.38.1,2.43.03,4.86.04,7.29,0,.32-.13.45-.45.44-.67,0-1.33-.03-2,0-.5.03-.67-.13-.66-.64.03-1.83.01-3.67,0-5.5,0-.43,0-.87-.11-1.29-.26-.95-.93-1.5-1.9-1.57-.94-.06-1.8.46-2.15,1.32-.19.45-.25.93-.24,1.42,0,1.87-.01,3.73.01,5.6,0,.49-.11.7-.64.66-.6-.04-1.2,0-1.8,0-.67,0-.67,0-.67-.66v-13.39c0-.22.02-.44,0-.65-.03-.38.12-.54.51-.53.68.02,1.37.02,2.05,0,.42-.01.55.15.54.56-.02,1.53,0,3.07,0,4.6,0,.16,0,.33,0,.49Z"/>
    <path class="cls-1" d="M85.18,26.1c.17,0,.33.01.5,0,.57-.06,1.03,0,1.24.67.1.32.43.5.75.62.75.29,1.5.27,2.24-.03.42-.17.67-.47.68-.95,0-.49-.27-.77-.68-.94-.84-.34-1.74-.43-2.62-.63-.64-.15-1.26-.32-1.83-.65-1.9-1.06-2.13-3.73-.44-5.11.11-.1.23-.2.36-.27,2.13-1.12,4.27-1.15,6.4-.02.88.47,1.39,1.27,1.58,2.26.08.41-.03.64-.5.62-.6-.02-1.2-.01-1.8,0-.3,0-.49-.07-.6-.39-.47-1.34-2.43-1.31-3.15-.7-.54.46-.49,1.22.1,1.61.4.27.87.34,1.32.44.94.22,1.9.35,2.82.68,1.06.37,1.93.95,2.12,2.16.21,1.38-.22,2.53-1.39,3.36-.65.46-1.38.75-2.17.84-1.83.21-3.64.2-5.19-1.02-.67-.53-1.04-1.24-1.22-2.06-.08-.34.03-.5.4-.48.36.02.73,0,1.1,0Z"/>
    <path class="cls-1" d="M158.8,22.41c-.08,0-.17,0-.25,0-.72.08-1.19-.04-1.54-.87-.6-1.45-2.69-1.53-3.65-.25-.92,1.24-.94,3.88-.03,5.13.55.75,1.31,1.01,2.2.88.83-.12,1.43-.6,1.66-1.4.14-.5.41-.6.86-.58.56.03,1.13.02,1.7,0,.41-.01.52.14.46.54-.32,2.03-1.92,3.58-4.06,3.83-1.66.19-3.27.05-4.65-1.06-1.24-.99-1.79-2.34-1.93-3.87-.11-1.16-.05-2.33.36-3.45.71-1.92,2.42-3.2,4.47-3.31,1.07-.06,2.13-.03,3.14.43,1.51.68,2.42,1.83,2.67,3.48.05.34-.03.51-.4.49-.34-.02-.67,0-1,0Z"/>
    <path class="cls-1" d="M57.08,24.03c0-1.11-.02-2.03,0-2.94,0-.41-.12-.56-.54-.55-1.06,0-1.06-.02-1.06-1.07v-.1c0-1.1,0-1.12,1.09-1.13.36,0,.51-.11.5-.49-.02-.6.02-1.2-.01-1.8-.02-.4.15-.52.53-.51.68.02,1.37.03,2.05,0,.46-.02.58.17.56.59-.02.55,0,1.1,0,1.65-.01.4.12.59.54.56.38-.02.77,0,1.15,0,.27,0,.39.12.39.39,0,.51,0,1.03,0,1.55,0,.28-.14.38-.41.38-.42,0-.83,0-1.25,0-.3,0-.43.13-.42.42,0,1.71-.03,3.43.03,5.15.03.99.44,1.33,1.43,1.31.47,0,.67.12.63.61-.04.41-.01.83,0,1.25,0,.25-.09.42-.36.44-.91.04-1.83.12-2.73-.11-1.15-.3-1.82-1.05-2.01-2.23-.19-1.18-.05-2.36-.1-3.35Z"/>
    <path class="cls-1" d="M79.38,19.94c.15-.29.29-.59.46-.86.58-.89,1.7-1.3,2.72-1.05.25.07.3.23.3.44,0,.65,0,1.3,0,1.95,0,.31-.14.36-.41.3-.46-.1-.92-.11-1.39,0-.86.2-1.41.71-1.63,1.57-.1.39-.14.78-.14,1.19,0,1.8,0,3.6,0,5.4,0,.65,0,.66-.68.66-.63,0-1.27-.01-1.9,0-.37.01-.54-.1-.54-.5,0-3.45,0-6.89,0-10.34,0-.33.11-.49.46-.48.71.02,1.43.02,2.15,0,.41-.01.52.17.51.54-.02.39,0,.78,0,1.17.02,0,.05,0,.08,0Z"/>
    <path class="cls-1" d="M144.76,23.85c0-1.68.01-3.36,0-5.04,0-.46.15-.62.6-.6.68.03,1.36.02,2.05,0,.34,0,.47.14.47.48,0,3.46,0,6.92,0,10.38,0,.34-.14.47-.48.47-.7-.01-1.4-.02-2.09,0-.42.02-.55-.15-.54-.55.02-1.71,0-3.43,0-5.14Z"/>
    <path class="cls-1" d="M54.27,23.87c0,1.7,0,3.39,0,5.09,0,.43-.12.6-.57.58-.68-.03-1.36-.02-2.05,0-.36,0-.51-.12-.51-.49,0-3.44,0-6.89,0-10.33,0-.36.13-.51.5-.5.68.02,1.36.02,2.05,0,.43-.02.58.13.58.57-.02,1.69,0,3.39,0,5.09Z"/>
    <path class="cls-1" d="M22.09,41.81c-.01.79-.09,1.4-.31,1.98-.28.72-.8,1.12-1.44,1.12-.66,0-1.15-.36-1.43-1.11-.67-1.78-.76-3.6-.29-5.45.24-.95.72-1.31,1.53-1.25.62.05.93.48,1.15.98.4.91.52,1.89.7,2.85.06.34.08.7.09.88Z"/>
    <path class="cls-1" d="M181.97,48.45c-.74,0-1.47-.09-2.13-.44-.53-.27-.86-.68-.89-1.29-.02-.61.29-1.05.8-1.34.26-.15.53-.28.82-.36,1.32-.38,2.66-.61,4.04-.41.33.05.66.13.95.28,1.11.55,1.21,1.97.14,2.61-1.14.69-2.42.89-3.73.95Z"/>
    <path class="cls-1" d="M15.36,8.92c.57,0,1.41.2,2.21.62.52.27.59.62.25,1.1-1.28,1.81-4.2,2.83-6.33,2.21-.27-.08-.53-.18-.76-.35-.55-.42-.66-1.05-.3-1.64.2-.32.48-.55.79-.75,1.16-.74,2.41-1.18,4.14-1.18Z"/>
    <path class="cls-1" d="M184.51,12.99c-1.93-.05-3.47-.83-4.69-2.26-.48-.56-.37-.99.31-1.29,1.57-.69,3.15-.77,4.74-.07.69.3,1.35.66,1.93,1.14.41.34.64.77.53,1.32-.11.52-.52.74-.98.9-.61.2-1.24.21-1.84.27Z"/>
    <path class="cls-1" d="M15.45,48.43c-1.63-.05-3.03-.5-4.16-1.6-.67-.65-.62-.96.18-1.45,2.16-1.32,4.3-.96,6.42.08.5.24.78.68.77,1.25-.02.61-.34,1.04-.89,1.27-.77.33-1.58.41-2.31.45Z"/>
    <path class="cls-1" d="M189.75,27.35c-.45.02-.93-.1-1.38-.32-1.58-.75-2.74-1.92-3.52-3.48-.18-.37-.31-.77-.33-1.2-.04-.69.17-.91.84-.94.51-.02,1,.07,1.46.27,1.65.71,2.89,1.87,3.75,3.45.15.28.25.58.32.89.22.98-.07,1.34-1.14,1.32Z"/>
    <path class="cls-1" d="M179.24,41.03c-.09.84-.32,1.97-.74,3.07-.21.55-.62.9-1.25.9-.63,0-1.04-.35-1.26-.89-.75-1.87-.66-4.97,1-6.78.56-.61.92-.57,1.34.16.57,1,.95,2.06.91,3.55Z"/>
    <path class="cls-1" d="M178.41.99c-.01-.79.22-1.02,1.01-.98.91.04,1.65.5,2.32,1.05,1.23,1,2.27,2.16,2.62,3.78.29,1.37-.27,1.88-1.61,1.44-1.48-.49-2.53-1.55-3.4-2.81-.66-.96-.93-1.71-.94-2.48Z"/>
    <path class="cls-1" d="M6.19,34.4c0,.94-.36,1.24-1.18,1.07-2.7-.54-4.05-2.46-4.92-4.86-.09-.25-.11-.52-.04-.79.11-.4.35-.63.79-.6,2.23.15,4.97,2.66,5.31,4.86.02.13.03.27.04.31Z"/>
    <path class="cls-1" d="M195.45,12.43c.04,1.85-.48,3.48-1.91,4.74-.62.55-1.06.46-1.39-.29-.68-1.53-.73-3.09-.12-4.66.25-.65.5-1.31.87-1.91.3-.48.65-.92,1.3-.83.58.08.96.52,1.11,1.26.12.56.14,1.12.15,1.69Z"/>
    <path class="cls-1" d="M197.52,20.61c-.15,2.26-.82,4.23-2.77,5.56-.32.22-.65.41-1.01.53-.75.27-1.2,0-1.18-.8.02-1.13.16-2.25.67-3.29.62-1.25,1.58-2.16,2.75-2.88.34-.21.72-.42,1.12-.2.43.24.4.69.43,1.08Z"/>
    <path class="cls-1" d="M7.88,34.05c.05-2.5,1.83-5.03,4.18-5.91.54-.2.9,0,1.03.57.13.59.04,1.15-.11,1.72-.46,1.75-1.26,3.26-2.88,4.21-.27.16-.56.3-.86.41-.97.35-1.38.04-1.36-1Z"/>
    <path class="cls-1" d="M192.27,35.52c-.71,0-.98-.31-.91-1.01.1-1.07.59-1.98,1.26-2.78.98-1.17,2.08-2.17,3.66-2.43,1.01-.17,1.28.1,1.16,1.11-.27,2.26-2.61,4.71-4.85,5.07-.13.02-.26.03-.32.04Z"/>
    <path class="cls-1" d="M5.93,14.55c.03.78-.19,1.61-.6,2.39-.38.72-.74.78-1.36.22-1.04-.93-1.59-2.11-1.76-3.48-.12-.91-.05-1.83.02-2.74.07-1.01.56-1.48,1.36-1.43.51.03.81.34,1.07.73.64.95,1.28,3.04,1.28,4.31Z"/>
    <path class="cls-1" d="M7.87,27.34c-1.11.02-1.4-.34-1.14-1.34.55-2.16,3-4.33,5.18-4.62.28-.04.53,0,.78.1.34.14.49.39.39.76-.57,2.23-1.86,3.87-3.96,4.84-.42.19-.86.28-1.25.27Z"/>
    <path class="cls-1" d="M13.2,5.32c0-.61.18-1.23.5-1.8.91-1.62,2.14-2.88,3.98-3.4,1.22-.34,1.68.07,1.38,1.3-.54,2.19-1.89,3.77-3.91,4.77-.35.17-.74.2-1.12.21-.6.02-.85-.3-.83-1.09Z"/>
    <path class="cls-1" d="M16.7,35.29c.06,2.03-.36,3.68-1.77,4.95-.68.61-1.06.53-1.44-.29-.53-1.14-.62-2.34-.41-3.56.15-.91.49-1.76.87-2.59.12-.27.28-.53.49-.75.37-.41.84-.53,1.36-.4.51.13.69.55.77,1.01.11.61.12,1.23.12,1.63Z"/>
    <path class="cls-1" d="M184.53,37.42c-.15.68-.03,1.42-.2,2.13-.23.93-1.25,1.27-1.98.64-.35-.3-.59-.68-.77-1.09-.73-1.7-1.15-3.44-.54-5.28.11-.33.25-.65.41-.96.28-.52.64-.58,1.08-.18,1.08,1,1.7,2.24,1.89,3.69.04.33.07.67.11,1.04Z"/>
    <path class="cls-1" d="M189.55,33.71c.04,1.41-.47,1.8-1.63,1.18-2.17-1.16-3.33-3.07-3.55-5.49-.11-1.21.51-1.58,1.62-1.07,1.41.66,2.29,1.84,2.97,3.18.37.72.6,1.48.58,2.2Z"/>
    <path class="cls-1" d="M6.38,5.98c-.03-1.51.55-2.82,1.35-4.05.17-.27.29-.23.48,0,1.92,2.32,2.33,4.86,1.09,7.64-.17.38-.4.71-.85.75-.48.05-.76-.28-.99-.64-.68-1.04-1.08-2.41-1.07-3.69Z"/>
    <path class="cls-1" d="M187.48,42.53c-.35-.04-.79-.06-1.21-.12-.85-.13-1.21-.93-.68-1.6,1.69-2.1,3.98-3.07,6.73-2.34.62.16.76.52.43,1.09-1.16,1.97-2.89,2.96-5.27,2.97Z"/>
    <path class="cls-1" d="M185.28,15.14c2.2-.01,4.04.71,5.3,2.61.53.8.39,1.19-.53,1.45-1.72.48-3.33.24-4.79-.82-.47-.34-.91-.73-1.34-1.12-.44-.4-.66-.9-.44-1.48.21-.56.74-.6,1.25-.64.18-.01.37,0,.55,0Z"/>
    <path class="cls-1" d="M9.21,19.42c-.67,0-1.24-.1-1.8-.26-.75-.22-.92-.64-.5-1.31.94-1.5,2.3-2.34,4.05-2.63.77-.12,1.53-.04,2.28,0,.88.04,1.32.89.75,1.56-1.28,1.49-2.76,2.66-4.78,2.65Z"/>
    <path class="cls-1" d="M191.16,6.1c.05,1.21-.37,2.35-1,3.43-.06.1-.12.2-.2.29-.57.72-1.16.68-1.59-.12-.27-.5-.43-1.05-.56-1.6-.55-2.31.02-4.34,1.56-6.12.2-.24.33-.26.53.02.76,1.09,1.26,2.66,1.26,4.1Z"/>
    <path class="cls-1" d="M9.8,42.53c-1.88.02-3.21-.83-4.27-2.18-.17-.22-.32-.47-.47-.71q-.57-.96.5-1.22c2.59-.62,4.63.32,6.31,2.26.28.32.41.69.23,1.11-.18.42-.53.58-.95.62-.48.05-.96.16-1.34.12Z"/>
    <path class="cls-1" d="M4.84,25.32c-.08,1.48.22,1.65-1.32.98C1.35,25.35-.06,23.08.01,20.76c.04-1.35.51-1.63,1.68-.97,2.22,1.25,3.1,3.24,3.14,5.54Z"/>
    <path class="cls-1" d="M96.77,14.3c.37,0,.73,0,1.1,0,.27,0,.36.12.29.37-.46,1.72-.91,3.44-1.37,5.16-.06.21-.18.3-.39.3-.48,0-.96,0-1.45,0-.28,0-.38-.1-.34-.4.23-1.68.45-3.36.66-5.04.04-.3.18-.4.46-.4.35,0,.7,0,1.05,0Z"/>
    <path class="cls-1" d="M146.31,16.75c-.92,0-1.65-.71-1.65-1.59,0-.9.76-1.63,1.68-1.62.92,0,1.63.73,1.62,1.66-.01.91-.7,1.56-1.65,1.55Z"/>
    <path class="cls-1" d="M52.73,16.75c-.98,0-1.67-.65-1.66-1.6,0-.9.71-1.61,1.61-1.62.92,0,1.68.71,1.68,1.62,0,.87-.72,1.59-1.64,1.6Z"/>
    <path class="cls-2" d="M45.97,17.62v2.33s-.08.02-.12.02c-.01-.02-.03-.04-.05-.06-.02-.03-.05-.06-.07-.09-1.27-2.55-5.73-2.52-7.17.4-.41.84-.65,1.71-.73,2.63-.14,1.69,0,3.32.84,4.85,1.46,2.69,5.84,2.75,7.1.17.03-.06.07-.12.19-.05,0,.11,0,.22,0,.33,0,.26,0,.52-.01.79-.04.47.17.61.61.59.4-.02.8-.01,1.21,0,.21,0,.43,0,.64,0,.65,0,.66,0,.66-.68v-7.55c0-.54,0-1.08,0-1.61,0-1.61,0-3.22,0-4.84,0-.4-.12-.58-.54-.56-.68.03-1.37.02-2.05,0-.38,0-.54.14-.53.53,0,.65,0,1.31,0,1.96,0,.28,0,.56,0,.84ZM41.36,21.89c-.3.61-.4,1.27-.38,1.95-.02.65.05,1.29.32,1.89.41.91,1.11,1.46,2.13,1.47,1,0,1.72-.51,2.12-1.4.59-1.31.59-2.65-.05-3.95-.42-.85-1.14-1.3-2.09-1.29-.95,0-1.64.49-2.06,1.34Z"/>
    <path class="cls-2" d="M167.27,24.62c.32,0,.65,0,.97,0,.27,0,.54,0,.81,0,.63,0,1.26,0,1.89,0,.7,0,1,.05,1.13-.07.13-.12.08-.42.07-1.14-.01-1.46-.42-2.79-1.45-3.88-1.21-1.28-2.74-1.62-4.43-1.52-2.17.13-3.71,1.19-4.5,3.23-.64,1.64-.63,3.33-.11,5,.46,1.48,1.4,2.57,2.87,3.12,1.53.57,3.1.57,4.65.03,1.35-.48,2.27-1.41,2.75-2.77.12-.35.07-.53-.35-.52-.53.01-1.06,0-1.6,0-.13,0-.27,0-.4,0-.22,0-.36.07-.5.26-.68.94-1.73,1.3-2.86,1.01-1.13-.3-1.62-1.12-1.81-2.21-.07-.4.03-.54.45-.54.81.01,1.62.01,2.43,0ZM166.23,22.63c.19,0,.37,0,.56,0,.16,0,.32,0,.48,0,.49,0,.97,0,1.46,0,.34,0,.44-.13.36-.46-.26-1.13-1.12-1.86-2.27-1.86-1.16,0-2.06.72-2.33,1.86-.08.33.01.47.35.46.46,0,.93,0,1.39,0Z"/>
    <path class="cls-2" d="M63.45,24.62c.3,3.29,2.29,5.13,5.58,5.13,2.83,0,4.72-1.36,5.38-3.9.34-1.29.34-2.61,0-3.9-.47-1.82-1.58-3.1-3.4-3.67-1.23-.39-2.49-.39-3.74-.07-1.62.42-2.76,1.42-3.38,2.98-.44,1.1-.55,2.25-.44,3.43ZM70.66,26.61c.7-.76.81-1.72.83-2.7.01-.86-.1-1.7-.58-2.44-.89-1.39-2.8-1.42-3.72-.06-.84,1.23-.82,3.75.02,4.96.83,1.19,2.47,1.31,3.45.24Z"/>
    <path class="cls-2" d="M131.94,24.29c.1,3.39,2.21,5.46,5.58,5.46,1.53.04,2.9-.34,4.02-1.44,1.91-1.89,2.16-5.87.58-8.18-1.73-2.52-5.59-2.56-7.55-1.45-.33.19-.64.41-.92.68-1.43,1.35-1.76,3.07-1.7,4.93ZM139.54,26.06c.35-.69.45-1.42.43-2.17.01-.75-.07-1.47-.41-2.14-.44-.87-1.12-1.33-2.11-1.32-.96.02-1.62.52-1.97,1.36-.59,1.4-.58,2.83.02,4.22.37.85,1.06,1.3,2,1.32.95.01,1.61-.45,2.04-1.27Z"/>
  </g>
</svg>