<svg width="240" height="240" viewBox="0 0 240 240" fill="none" xmlns="http://www.w3.org/2000/svg">
<path d="M35.3042 176.136C35.3042 176.136 21.0185 197.184 25.0796 212.24C29.1407 227.296 49.1894 222.618 50.4939 210.805C51.7984 198.991 37.7137 190.21 35.3042 176.136Z" fill="#F1F1F1" stroke="black" stroke-width="1.5" stroke-linecap="round" stroke-linejoin="round"/>
<path d="M115.094 21.0294C115.094 21.0294 98.9228 23.9314 93.8013 32.6036C88.6798 41.2757 99.8904 48.425 105.936 43.6951C111.982 38.9651 109.68 28.4951 115.094 21.0294Z" fill="#F1F1F1" stroke="black" stroke-width="1.5" stroke-linecap="round" stroke-linejoin="round"/>
<path d="M199.669 33.1496C199.669 33.1496 185.81 67.9052 196.408 88.2473C207.007 108.589 234.326 95.5246 232.461 78.1421C230.596 60.7596 207.584 52.6031 199.669 33.1496Z" fill="#F1F1F1" stroke="black" stroke-width="1.5" stroke-linecap="round" stroke-linejoin="round"/>
<path d="M174.736 11.4305C174.736 11.4305 70.6123 82.0185 61.8419 158.477C53.0715 234.935 153.86 249.928 181.407 198.102C208.955 146.276 160.157 80.3783 174.736 11.4305Z" fill="#F1F1F1" stroke="black" stroke-width="1.5" stroke-linecap="round" stroke-linejoin="round"/>
<path d="M105.723 114.795C104.86 137.24 91.5466 155.081 75.9898 154.362C60.4331 153.642 48.557 135.053 49.4484 112.579C50.3399 90.1046 63.6537 72.5224 79.1816 73.0403C94.7096 73.5583 106.614 92.3492 105.723 114.795Z" fill="#F1F1F1" stroke="black" stroke-width="1.5" stroke-linecap="round" stroke-linejoin="round"/>
<path d="M68.1969 113.327L84.7027 127.542C81.1945 139.053 74.2356 146.189 66.903 145.902C56.6373 145.499 48.7582 130.449 49.4483 112.579C50.1385 94.7087 59.1677 80.3494 69.5772 80.7523C78.5489 81.1264 85.8816 92.6081 86.8305 108.003L68.1969 113.327Z" fill="black" stroke="black" stroke-width="1.5" stroke-linecap="round" stroke-linejoin="round"/>
<path d="M149.173 114.392C148.281 136.837 134.967 154.678 119.439 153.93C103.911 153.182 92.0066 134.622 92.898 112.176C93.7895 89.7307 107.075 72.0333 122.631 72.6376C138.188 73.2419 150.064 91.9464 149.173 114.392Z" fill="#F1F1F1" stroke="black" stroke-width="1.5" stroke-linecap="round" stroke-linejoin="round"/>
<path d="M111.618 112.809L128.152 127.024C124.644 138.535 117.685 145.643 110.353 145.355C100.058 144.952 92.1792 129.931 92.8981 112.061C93.617 94.1907 102.617 79.8314 113.027 80.2342C121.999 80.5795 129.331 92.09 130.28 107.485L111.618 112.809Z" fill="black" stroke="black" stroke-width="1.5" stroke-linecap="round" stroke-linejoin="round"/>
<path d="M155.93 181.872C157.049 178.97 157.488 175.851 157.214 172.753C156.94 169.655 155.96 166.661 154.349 164.002C148.799 155.542 137.527 160.146 130.165 169.757C117.714 186.044 107.621 174.764 102.905 188.001C99.483 197.612 117.283 205.267 134.277 200.806C151.272 196.346 155.499 183.713 155.93 181.872Z" stroke="black" stroke-width="1.5" stroke-linecap="round" stroke-linejoin="round"/>
<path d="M155.298 183.627C150.072 181.699 144.353 181.578 139.051 183.282C130.884 186.159 130.683 190.361 130.683 190.361C128.924 189.212 126.892 188.554 124.794 188.453C122.697 188.352 120.61 188.811 118.749 189.785C116.686 190.565 114.878 191.899 113.524 193.64C112.169 195.381 111.321 197.463 111.072 199.655" stroke="black" stroke-width="1.5" stroke-linecap="round" stroke-linejoin="round"/>
<path d="M109.662 164.203C109.662 164.203 115.212 148.837 129.475 143.082C141.15 138.362 149.949 139.485 155.067 143.082" fill="#F1F1F1"/>
<path d="M109.662 164.203C109.662 164.203 115.212 148.837 129.475 143.082C141.15 138.362 149.949 139.485 155.067 143.082" stroke="black" stroke-width="1.5" stroke-linecap="round" stroke-linejoin="round"/>
</svg>
